# xmcd
#
# Track frame offsets:
#	150
#	13474
#	30115
#	47796
#	65322
#	79340
#	98168
#	116143
#	132422
#	146408
#	156717
#	178530
#
# Disc length: 2581 seconds
#
# Revision: 1
# Processed by: cddbd v1.4PL0 Copyright (c) Steve Scherf et al.
# Submitted via: audiograbber 1.81.01
#
DISCID=a60a130c
DTITLE=Nada - I Grandi Successi Originali cd1
DYEAR=1900
DGENRE=Pop
TTITLE0=Ma che freddo fà
TTITLE1=Brividi d'amore
TTITLE2=Una chitarra e un'armonica
TTITLE3=Il cuore è uno zingaro
TTITLE4=Les byciclettes de delsize
TTITLE5=Tic toc
TTITLE6=La porti un bacione a firenze
TTITLE7=Pà diglielo mà
TTITLE8=Piano piano dolce dolce
TTITLE9=Una rondine bianca
TTITLE10=Come faceva freddo
TTITLE11=Che male fà la gelosia
EXTD=
EXTT0=
EXTT1=
EXTT2=
EXTT3=
EXTT4=
EXTT5=
EXTT6=
EXTT7=
EXTT8=
EXTT9=
EXTT10=
EXTT11=
PLAYORDER=
